# xmcd
#
# Track frame offsets:
#	150
#	10082
#	37722
#	57480
#	81495
#	106065
#	124360
#	188372
#	214347
#	259430
#	288635
#	305387
#
# Disc length: 4311 seconds
#
# Revision: 0
# Processed by: cddbd v1.4PL0 Copyright (c) Steve Scherf et al.
# Submitted via: dBpowerAMP V4.0
#
DISCID=a810d50c
DTITLE=Ryan Adams - Amsterdam Or Bust
DYEAR=2002
DGENRE=Country
TTITLE0=Silver and Gold Intro
TTITLE1=Silver and Gold
TTITLE2=My Winding Wheel
TTITLE3=Dont Ask For The Water
TTITLE4=You Will Always Be The Same
TTITLE5=Desire
TTITLE6=Sweet Lil Gal
TTITLE7=Firecracker/Break Off/Dance All Night
TTITLE8=Vampire
TTITLE9=Call Me On  Your Way Back Home/Come Pick Me Up
TTITLE10=Mara Lisa
TTITLE11=From Me To You
EXTD=
EXTT0=
EXTT1=
EXTT2=
EXTT3=
EXTT4=
EXTT5=
EXTT6=
EXTT7=
EXTT8=
EXTT9=
EXTT10=
EXTT11=
PLAYORDER=
